<mxfile host="app.diagrams.net" agent="Mozilla/5.0 (Windows NT 10.0; Win64; x64) AppleWebKit/537.36 (KHTML, like Gecko) Chrome/141.0.0.0 Safari/537.36" version="28.2.8">
  <diagram name="Page-1" id="5q0BsED0PhrvPiDOqksD">
    <mxGraphModel dx="1123" dy="596" grid="1" gridSize="10" guides="1" tooltips="1" connect="1" arrows="1" fold="1" page="1" pageScale="1" pageWidth="850" pageHeight="1100" math="0" shadow="0">
      <root>
        <mxCell id="0" />
        <mxCell id="1" parent="0" />
        <mxCell id="QaNtB1GNQDISEvclTaa0-1" value="frame" style="shape=umlFrame;whiteSpace=wrap;html=1;pointerEvents=0;" vertex="1" parent="1">
          <mxGeometry x="220" y="110" width="410" height="470" as="geometry" />
        </mxCell>
        <mxCell id="QaNtB1GNQDISEvclTaa0-2" value="&lt;font style=&quot;font-size: 30px;&quot;&gt;Virtual Healthcare System&lt;/font&gt;" style="text;html=1;whiteSpace=wrap;strokeColor=none;fillColor=none;align=center;verticalAlign=middle;rounded=0;" vertex="1" parent="1">
          <mxGeometry x="395" y="330" width="60" height="30" as="geometry" />
        </mxCell>
        <mxCell id="QaNtB1GNQDISEvclTaa0-22" style="edgeStyle=orthogonalEdgeStyle;rounded=0;orthogonalLoop=1;jettySize=auto;html=1;exitX=1;exitY=0.3333333333333333;exitDx=0;exitDy=0;exitPerimeter=0;entryX=0.5;entryY=0;entryDx=0;entryDy=0;" edge="1" parent="1" source="QaNtB1GNQDISEvclTaa0-3" target="QaNtB1GNQDISEvclTaa0-10">
          <mxGeometry relative="1" as="geometry" />
        </mxCell>
        <mxCell id="QaNtB1GNQDISEvclTaa0-23" style="edgeStyle=orthogonalEdgeStyle;rounded=0;orthogonalLoop=1;jettySize=auto;html=1;exitX=1;exitY=0.3333333333333333;exitDx=0;exitDy=0;exitPerimeter=0;entryX=0;entryY=0.5;entryDx=0;entryDy=0;" edge="1" parent="1" source="QaNtB1GNQDISEvclTaa0-3" target="QaNtB1GNQDISEvclTaa0-11">
          <mxGeometry relative="1" as="geometry" />
        </mxCell>
        <mxCell id="QaNtB1GNQDISEvclTaa0-24" style="edgeStyle=orthogonalEdgeStyle;rounded=0;orthogonalLoop=1;jettySize=auto;html=1;exitX=1;exitY=1;exitDx=0;exitDy=0;exitPerimeter=0;entryX=0.5;entryY=0;entryDx=0;entryDy=0;" edge="1" parent="1" source="QaNtB1GNQDISEvclTaa0-3" target="QaNtB1GNQDISEvclTaa0-16">
          <mxGeometry relative="1" as="geometry" />
        </mxCell>
        <mxCell id="QaNtB1GNQDISEvclTaa0-25" style="edgeStyle=orthogonalEdgeStyle;rounded=0;orthogonalLoop=1;jettySize=auto;html=1;exitX=1;exitY=1;exitDx=0;exitDy=0;exitPerimeter=0;entryX=0;entryY=0.5;entryDx=0;entryDy=0;" edge="1" parent="1" source="QaNtB1GNQDISEvclTaa0-3" target="QaNtB1GNQDISEvclTaa0-12">
          <mxGeometry relative="1" as="geometry" />
        </mxCell>
        <mxCell id="QaNtB1GNQDISEvclTaa0-26" style="edgeStyle=orthogonalEdgeStyle;rounded=0;orthogonalLoop=1;jettySize=auto;html=1;exitX=0;exitY=1;exitDx=0;exitDy=0;exitPerimeter=0;entryX=0.5;entryY=0;entryDx=0;entryDy=0;" edge="1" parent="1" source="QaNtB1GNQDISEvclTaa0-3" target="QaNtB1GNQDISEvclTaa0-14">
          <mxGeometry relative="1" as="geometry" />
        </mxCell>
        <mxCell id="QaNtB1GNQDISEvclTaa0-41" style="edgeStyle=orthogonalEdgeStyle;rounded=0;orthogonalLoop=1;jettySize=auto;html=1;exitX=0;exitY=0.3333333333333333;exitDx=0;exitDy=0;exitPerimeter=0;entryX=0;entryY=0;entryDx=0;entryDy=0;" edge="1" parent="1" source="QaNtB1GNQDISEvclTaa0-3" target="QaNtB1GNQDISEvclTaa0-17">
          <mxGeometry relative="1" as="geometry" />
        </mxCell>
        <mxCell id="QaNtB1GNQDISEvclTaa0-42" style="edgeStyle=orthogonalEdgeStyle;rounded=0;orthogonalLoop=1;jettySize=auto;html=1;exitX=0.5;exitY=0;exitDx=0;exitDy=0;exitPerimeter=0;entryX=0;entryY=0;entryDx=0;entryDy=0;" edge="1" parent="1" source="QaNtB1GNQDISEvclTaa0-3" target="QaNtB1GNQDISEvclTaa0-13">
          <mxGeometry relative="1" as="geometry" />
        </mxCell>
        <mxCell id="QaNtB1GNQDISEvclTaa0-3" value="Patient" style="shape=umlActor;verticalLabelPosition=bottom;verticalAlign=top;html=1;" vertex="1" parent="1">
          <mxGeometry x="60" y="180" width="30" height="60" as="geometry" />
        </mxCell>
        <mxCell id="QaNtB1GNQDISEvclTaa0-31" style="edgeStyle=orthogonalEdgeStyle;rounded=0;orthogonalLoop=1;jettySize=auto;html=1;exitX=1;exitY=0.3333333333333333;exitDx=0;exitDy=0;exitPerimeter=0;entryX=0.5;entryY=1;entryDx=0;entryDy=0;" edge="1" parent="1" source="QaNtB1GNQDISEvclTaa0-4" target="QaNtB1GNQDISEvclTaa0-15">
          <mxGeometry relative="1" as="geometry" />
        </mxCell>
        <mxCell id="QaNtB1GNQDISEvclTaa0-4" value="Administrator" style="shape=umlActor;verticalLabelPosition=bottom;verticalAlign=top;html=1;" vertex="1" parent="1">
          <mxGeometry x="670" y="180" width="30" height="60" as="geometry" />
        </mxCell>
        <mxCell id="QaNtB1GNQDISEvclTaa0-27" style="edgeStyle=orthogonalEdgeStyle;rounded=0;orthogonalLoop=1;jettySize=auto;html=1;exitX=0;exitY=1;exitDx=0;exitDy=0;exitPerimeter=0;entryX=1;entryY=0;entryDx=0;entryDy=0;" edge="1" parent="1" source="QaNtB1GNQDISEvclTaa0-5" target="QaNtB1GNQDISEvclTaa0-13">
          <mxGeometry relative="1" as="geometry" />
        </mxCell>
        <mxCell id="QaNtB1GNQDISEvclTaa0-28" style="edgeStyle=orthogonalEdgeStyle;rounded=0;orthogonalLoop=1;jettySize=auto;html=1;exitX=1;exitY=1;exitDx=0;exitDy=0;exitPerimeter=0;entryX=0;entryY=0.5;entryDx=0;entryDy=0;" edge="1" parent="1" source="QaNtB1GNQDISEvclTaa0-5" target="QaNtB1GNQDISEvclTaa0-14">
          <mxGeometry relative="1" as="geometry" />
        </mxCell>
        <mxCell id="QaNtB1GNQDISEvclTaa0-30" style="edgeStyle=orthogonalEdgeStyle;rounded=0;orthogonalLoop=1;jettySize=auto;html=1;exitX=0;exitY=0.3333333333333333;exitDx=0;exitDy=0;exitPerimeter=0;entryX=0.5;entryY=0;entryDx=0;entryDy=0;" edge="1" parent="1" source="QaNtB1GNQDISEvclTaa0-5" target="QaNtB1GNQDISEvclTaa0-17">
          <mxGeometry relative="1" as="geometry" />
        </mxCell>
        <mxCell id="QaNtB1GNQDISEvclTaa0-5" value="HealthcareProvider" style="shape=umlActor;verticalLabelPosition=bottom;verticalAlign=top;html=1;" vertex="1" parent="1">
          <mxGeometry x="425" y="20" width="30" height="60" as="geometry" />
        </mxCell>
        <mxCell id="QaNtB1GNQDISEvclTaa0-10" value="Schedule Appointment" style="ellipse;whiteSpace=wrap;html=1;" vertex="1" parent="1">
          <mxGeometry x="480" y="120" width="140" height="70" as="geometry" />
        </mxCell>
        <mxCell id="QaNtB1GNQDISEvclTaa0-11" value="Register Account" style="ellipse;whiteSpace=wrap;html=1;" vertex="1" parent="1">
          <mxGeometry x="240" y="120" width="140" height="70" as="geometry" />
        </mxCell>
        <mxCell id="QaNtB1GNQDISEvclTaa0-12" value="Provide Feedback" style="ellipse;whiteSpace=wrap;html=1;" vertex="1" parent="1">
          <mxGeometry x="240" y="460" width="140" height="70" as="geometry" />
        </mxCell>
        <mxCell id="QaNtB1GNQDISEvclTaa0-13" value="Manage EHR" style="ellipse;whiteSpace=wrap;html=1;" vertex="1" parent="1">
          <mxGeometry x="240" y="230" width="140" height="70" as="geometry" />
        </mxCell>
        <mxCell id="QaNtB1GNQDISEvclTaa0-14" value="Conduct Virtual Consultation" style="ellipse;whiteSpace=wrap;html=1;" vertex="1" parent="1">
          <mxGeometry x="480" y="230" width="140" height="70" as="geometry" />
        </mxCell>
        <mxCell id="QaNtB1GNQDISEvclTaa0-15" value="Manage Provider Accounts" style="ellipse;whiteSpace=wrap;html=1;" vertex="1" parent="1">
          <mxGeometry x="480" y="460" width="140" height="70" as="geometry" />
        </mxCell>
        <mxCell id="QaNtB1GNQDISEvclTaa0-16" value="Make Payment" style="ellipse;whiteSpace=wrap;html=1;" vertex="1" parent="1">
          <mxGeometry x="480" y="350" width="140" height="70" as="geometry" />
        </mxCell>
        <mxCell id="QaNtB1GNQDISEvclTaa0-17" value="Issue Prescription" style="ellipse;whiteSpace=wrap;html=1;" vertex="1" parent="1">
          <mxGeometry x="240" y="350" width="140" height="70" as="geometry" />
        </mxCell>
        <mxCell id="QaNtB1GNQDISEvclTaa0-32" value="&amp;lt;&amp;lt;include&amp;gt;&amp;gt;" style="endArrow=open;endSize=12;dashed=1;html=1;rounded=0;exitX=1;exitY=0.5;exitDx=0;exitDy=0;" edge="1" parent="1" source="QaNtB1GNQDISEvclTaa0-10" target="QaNtB1GNQDISEvclTaa0-33">
          <mxGeometry width="160" relative="1" as="geometry">
            <mxPoint x="610" y="140" as="sourcePoint" />
            <mxPoint x="770" y="140" as="targetPoint" />
            <mxPoint as="offset" />
          </mxGeometry>
        </mxCell>
        <mxCell id="QaNtB1GNQDISEvclTaa0-33" value="View Provider Availability" style="ellipse;whiteSpace=wrap;html=1;" vertex="1" parent="1">
          <mxGeometry x="720" y="60" width="140" height="70" as="geometry" />
        </mxCell>
        <mxCell id="QaNtB1GNQDISEvclTaa0-35" value="Add Emergency Contact" style="ellipse;whiteSpace=wrap;html=1;" vertex="1" parent="1">
          <mxGeometry x="50" y="60" width="140" height="70" as="geometry" />
        </mxCell>
        <mxCell id="QaNtB1GNQDISEvclTaa0-36" value="&amp;lt;&amp;lt;extend&amp;gt;&amp;gt;" style="endArrow=open;endSize=12;dashed=1;html=1;rounded=0;entryX=0.5;entryY=1;entryDx=0;entryDy=0;exitX=0;exitY=0.5;exitDx=0;exitDy=0;" edge="1" parent="1" source="QaNtB1GNQDISEvclTaa0-11" target="QaNtB1GNQDISEvclTaa0-35">
          <mxGeometry width="160" relative="1" as="geometry">
            <mxPoint x="150" y="140" as="sourcePoint" />
            <mxPoint x="310" y="140" as="targetPoint" />
          </mxGeometry>
        </mxCell>
        <mxCell id="QaNtB1GNQDISEvclTaa0-37" value="Conduct visual Consultation" style="ellipse;whiteSpace=wrap;html=1;" vertex="1" parent="1">
          <mxGeometry x="90" y="340" width="140" height="70" as="geometry" />
        </mxCell>
        <mxCell id="QaNtB1GNQDISEvclTaa0-38" value="&amp;lt;&amp;lt;include&amp;gt;&amp;gt;" style="endArrow=open;endSize=12;dashed=1;html=1;rounded=0;exitX=0.019;exitY=0.724;exitDx=0;exitDy=0;exitPerimeter=0;entryX=0.5;entryY=0;entryDx=0;entryDy=0;" edge="1" parent="1" source="QaNtB1GNQDISEvclTaa0-13" target="QaNtB1GNQDISEvclTaa0-37">
          <mxGeometry width="160" relative="1" as="geometry">
            <mxPoint x="90" y="310" as="sourcePoint" />
            <mxPoint x="250" y="310" as="targetPoint" />
          </mxGeometry>
        </mxCell>
        <mxCell id="QaNtB1GNQDISEvclTaa0-39" value="Set Follow-up Reminder" style="ellipse;whiteSpace=wrap;html=1;" vertex="1" parent="1">
          <mxGeometry x="20" y="510" width="140" height="70" as="geometry" />
        </mxCell>
        <mxCell id="QaNtB1GNQDISEvclTaa0-40" value="&amp;lt;&amp;lt;extend&amp;gt;&amp;gt;" style="endArrow=open;endSize=12;dashed=1;html=1;rounded=0;exitX=0.5;exitY=1;exitDx=0;exitDy=0;entryX=0.5;entryY=0;entryDx=0;entryDy=0;" edge="1" parent="1" source="QaNtB1GNQDISEvclTaa0-37" target="QaNtB1GNQDISEvclTaa0-39">
          <mxGeometry width="160" relative="1" as="geometry">
            <mxPoint x="30" y="440" as="sourcePoint" />
            <mxPoint x="190" y="440" as="targetPoint" />
          </mxGeometry>
        </mxCell>
      </root>
    </mxGraphModel>
  </diagram>
</mxfile>
